<svg class="fill-current text-red" xmlns="http://www.w3.org/2000/svg" xmlns:xlink="http://www.w3.org/1999/xlink" xml:space="preserve" version="1.1" style="shape-rendering:geometricPrecision;text-rendering:geometricPrecision;image-rendering:optimizeQuality;" viewBox="0 0 400 467.5" x="0px" y="0px" fill-rule="evenodd" clip-rule="evenodd"><g><path class="fil0" d="M9 0l59 29 7 36 325 0 -41 172 -252 1 5 26 234 0 0 21 -251 0 -45 -242 -50 -24 9 -19zm70 86l25 131 238 -1 32 -130 -295 0z"/><path class="fil0" d="M160 292c23,0 41,18 41,41 0,23 -18,41 -41,41 -23,0 -42,-18 -42,-41 0,-23 19,-41 42,-41zm0 20c-11,0 -21,10 -21,21 0,11 10,20 21,20 11,0 20,-9 20,-20 0,-11 -9,-21 -20,-21z"/><path class="fil0" d="M285 292c23,0 41,18 41,41 0,23 -18,41 -41,41 -23,0 -41,-18 -41,-41 0,-23 18,-41 41,-41zm0 20c-11,0 -20,10 -20,21 0,11 9,20 20,20 11,0 21,-9 21,-20 0,-11 -10,-21 -21,-21z"/></g></svg>
